<svg id="color" height="512" viewBox="0 0 24 24" width="512" xmlns="http://www.w3.org/2000/svg"><path d="m22.25 6h-2.73l-3.23 15h2.82c1.31 0 2.44-.93 2.7-2.21l2.16-10.71c.02-.11.03-.22.03-.33 0-.96-.79-1.75-1.75-1.75z" fill="#607d8b"/><path d="m9.5 6c-.3 0-.56.17-.69.45l-6 13.5c-.1.23-.08.5.06.71s.38.34.63.34h12.79l3.23-15z" fill="#cfd8dc"/><path d="m6.25 18.25-.1-.007-5.403-.725c-.214-.029-.406-.148-.525-.329-.12-.18-.155-.403-.099-.612l3-11c.414-1.517 1.803-2.577 3.377-2.577 1.93 0 3.5 1.57 3.5 3.5 0 .312-.042.623-.123.922l-2.905 10.282c-.093.326-.39.546-.722.546z" fill="#90a4ae"/><path d="m3.5 21c-1.93 0-3.5-1.57-3.5-3.5s1.57-3.5 3.5-3.5 3.5 1.57 3.5 3.5-1.57 3.5-3.5 3.5z" fill="#607d8b"/><path d="m23.101 12.389-4.962.024-1.849 8.587h2.82c1.31 0 2.44-.93 2.7-2.21z" fill="#546d79"/><path d="m18.139 12.412-9.685.046-1.456 5.152c-.058 1.879-1.605 3.39-3.498 3.39h12.79z" fill="#b4bcc0"/><path d="m8.454 12.458-7.217.034-1.114 4.085c-.002.007-.004.014-.006.022.399-1.494 1.765-2.599 3.383-2.599 1.93 0 3.5 1.57 3.5 3.5 0 .037-.001.073-.002.11z" fill="#7d8f97"/><path d="m3.5 14c-1.618 0-2.984 1.105-3.382 2.599-.077.288-.118.59-.118.901 0 1.93 1.57 3.5 3.5 3.5 1.893 0 3.44-1.511 3.498-3.39.001-.037.002-.073.002-.11 0-1.93-1.57-3.5-3.5-3.5z" fill="#546d79"/></svg>