<svg id="color" height="512" viewBox="0 0 24 24" width="512" xmlns="http://www.w3.org/2000/svg"><path d="m23.899 7.374c-.134-.231-.381-.374-.649-.374h-16.25c-3.859 0-7 3.141-7 7s3.141 7 7 7 7-3.141 7-7v-1.75c0-.138.112-.25.25-.25h5.259c1.342 0 2.59-.724 3.256-1.89l1.136-1.988c.133-.232.132-.518-.002-.748z" fill="#607d8b"/><path d="m7 18c-2.209 0-4-1.791-4-4s1.791-4 4-4 4 1.791 4 4-1.791 4-4 4z" fill="#cfd8dc"/><path d="m23.25 7h-16.25c-3.859 0-7 3.141-7 7 0 3.818 3.073 6.932 6.875 6.999v-3.001c-2.151-.066-3.875-1.831-3.875-3.998 0-2.209 1.791-4 4-4 .677 0 1.315.168 1.874.465.758-.53 1.68-.841 2.675-.841h11.494l.859-1.503c.132-.232.131-.518-.002-.748-.135-.23-.382-.373-.65-.373z" fill="#546d79"/><path d="m7 10c-2.209 0-4 1.791-4 4 0 2.167 1.724 3.932 3.875 3.998v-3.699c0-1.586.791-2.988 1.999-3.833-.559-.298-1.197-.466-1.874-.466z" fill="#b4bcc0"/><path d="m6 5c-.256 0-.512-.098-.707-.293l-1-1c-.391-.391-.391-1.023 0-1.414s1.023-.391 1.414 0l1 1c.391.391.391 1.023 0 1.414-.195.195-.451.293-.707.293z" fill="#607d8b"/><path d="m4.293 2.293c-.391.391-.391 1.023 0 1.414l1 1c.195.195.451.293.707.293s.512-.098.707-.293z" fill="#546d79"/><path d="m9.5 5c-.552 0-1-.447-1-1v-1c0-.553.448-1 1-1s1 .447 1 1v1c0 .553-.448 1-1 1z" fill="#607d8b"/><path d="m9.5 2c-.552 0-1 .447-1 1v1c0 .553.448 1 1 1z" fill="#546d79"/><path d="m13 5c-.256 0-.512-.098-.707-.293-.391-.391-.391-1.023 0-1.414l1-1c.391-.391 1.023-.391 1.414 0s.391 1.023 0 1.414l-1 1c-.195.195-.451.293-.707.293z" fill="#607d8b"/><path d="m14 2c-.256 0-.512.098-.707.293l-1 1c-.391.391-.391 1.023 0 1.414l2.414-2.414c-.195-.195-.451-.293-.707-.293z" fill="#546d79"/></svg>