<svg id="color" height="512" viewBox="0 0 24 24" width="512" xmlns="http://www.w3.org/2000/svg"><g fill="#607d8b"><path d="m1 17c-.552 0-1-.448-1-1v-6.5c0-.552.448-1 1-1s1 .448 1 1v6.5c0 .552-.448 1-1 1z"/><path d="m23 17c-.552 0-1-.448-1-1v-6.5c0-.552.448-1 1-1s1 .448 1 1v6.5c0 .552-.448 1-1 1z"/><path d="m17 21c-.552 0-1-.448-1-1v-4.75c0-.552.448-1 1-1s1 .448 1 1v4.75c0 .552-.448 1-1 1z"/><path d="m7 21c-.552 0-1-.448-1-1v-4.75c0-.552.448-1 1-1s1 .448 1 1v4.75c0 .552-.448 1-1 1z"/></g><path d="m1 8.5c-.552 0-1 .448-1 1v6.5c0 .552.448 1 1 1z" fill="#546d79"/><path d="m7 14.25c-.552 0-1 .448-1 1v4.75c0 .552.448 1 1 1z" fill="#546d79"/><path d="m17 14.25c-.552 0-1 .448-1 1v4.75c0 .552.448 1 1 1 .022 0 .044-.001.065-.002v-6.746c-.021-.001-.043-.002-.065-.002z" fill="#546d79"/><path d="m23 8.5c-.552 0-1 .448-1 1v6.5c0 .552.448 1 1 1z" fill="#546d79"/><path d="m12 16c-6.729 0-12-2.855-12-6.5s5.271-6.5 12-6.5 12 2.855 12 6.5-5.271 6.5-12 6.5z" fill="#cfd8dc"/><path d="m12 12.5c-3.479 0-7-1.03-7-3s3.521-3 7-3 7 1.03 7 3-3.521 3-7 3z" fill="#607d8b"/><path d="m12 3c-6.729 0-12 2.855-12 6.5 0 3.645 5.271 6.5 12 6.5.057 0 .114 0 .171-.001v-3.5c-.057.001-.114.001-.171.001-3.479 0-7-1.03-7-3s3.521-3 7-3c.057 0 .114 0 .171.001v-3.5c-.057-.001-.114-.001-.171-.001z" fill="#b4bcc0"/><path d="m12 6.5c-3.479 0-7 1.03-7 3s3.521 3 7 3c.057 0 .114 0 .171-.001v-5.998c-.057-.001-.114-.001-.171-.001z" fill="#546d79"/></svg>