<svg id="color" height="512" viewBox="0 0 24 24" width="512" xmlns="http://www.w3.org/2000/svg"><path d="m9.5 5.5c-.553 0-1-.448-1-1v-3.25c0-.552.447-1 1-1s1 .448 1 1v3.25c0 .552-.447 1-1 1z" fill="#607d8b"/><path d="m13.25 9.5h-7.5c-.414 0-.75-.336-.75-.75v-1c0-2.068 1.683-3.75 3.75-3.75h1.5c2.067 0 3.75 1.682 3.75 3.75v1c0 .414-.336.75-.75.75z" fill="#607d8b"/><path d="m9.5.25c-.553 0-1 .448-1 1v2.758c.083-.005.166-.008.25-.008h.75z" fill="#546d79"/><path d="m9.5 4h-.75c-.084 0-.167.003-.25.008-1.951.129-3.5 1.758-3.5 3.742v.354c.239-.068.49-.104.75-.104h3.75z" fill="#546d79"/><path d="m15.5 12c-.553 0-1-.448-1-1s.447-1 1-1c1.93 0 3.5-1.57 3.5-3.5v-1c0-1.93-1.57-3.5-3.5-3.5h-7.5c-.553 0-1-.448-1-1s.447-1 1-1h7.5c3.032 0 5.5 2.467 5.5 5.5v1c0 3.033-2.468 5.5-5.5 5.5z" fill="#607d8b"/><path d="m15.5 0h-7.5c-.553 0-1 .448-1 1h8.477c2.498 0 4.523 2.025 4.523 4.524v1.146c0 2.391-1.938 4.33-4.331 4.33h-1.169c0 .552.447 1 1 1 3.032 0 5.5-2.467 5.5-5.5v-1c0-3.033-2.468-5.5-5.5-5.5z" fill="#546d79"/><path d="m13.25 24h-7.5c-1.517 0-2.75-1.233-2.75-2.75v-10.5c0-1.517 1.233-2.75 2.75-2.75h7.5c1.517 0 2.75 1.233 2.75 2.75v10.5c0 1.517-1.233 2.75-2.75 2.75z" fill="#cfd8dc"/><path d="m11.25 20h-3.5c-.965 0-1.75-.785-1.75-1.75v-4.5c0-.965.785-1.75 1.75-1.75h3.5c.965 0 1.75.785 1.75 1.75v4.5c0 .965-.785 1.75-1.75 1.75z" fill="#607d8b"/><path d="m9.5 8h-3.75c-.26 0-.511.036-.75.104-1.153.327-2 1.389-2 2.646v10.5c0 1.517 1.233 2.75 2.75 2.75h3.75v-4h-1.75c-.965 0-1.75-.785-1.75-1.75v-4.5c0-.965.785-1.75 1.75-1.75h1.75z" fill="#b4bcc0"/><path d="m9.5 12h-1.75c-.965 0-1.75.785-1.75 1.75v4.5c0 .965.785 1.75 1.75 1.75h1.75z" fill="#546d79"/></svg>