<svg id="color" height="512" viewBox="0 0 24 24" width="512" xmlns="http://www.w3.org/2000/svg"><path d="m8 13c-1.654 0-3-1.346-3-3s1.346-3 3-3 3 1.346 3 3-1.346 3-3 3zm0-4c-.551 0-1 .449-1 1s.449 1 1 1 1-.449 1-1-.449-1-1-1z" fill="#cfd8dc"/><path d="m9 7.75h-2v-4.75h2z" fill="#cfd8dc"/><path d="m7 7.171c-1.164.413-2 1.525-2 2.829 0 1.654 1.346 3 3 3v-2c-.551 0-1-.449-1-1s.449-1 1-1v-1.25h-1z" fill="#b4bcc0"/><path d="m8 3h-1v4.171.579h1z" fill="#b4bcc0"/><path d="m16 13c-1.654 0-3-1.346-3-3s1.346-3 3-3 3 1.346 3 3-1.346 3-3 3zm0-4c-.551 0-1 .449-1 1s.449 1 1 1 1-.449 1-1-.449-1-1-1z" fill="#cfd8dc"/><path d="m17 7.75h-2v-4.75h2z" fill="#cfd8dc"/><path d="m15 7.171c-1.164.413-2 1.525-2 2.829 0 1.654 1.346 3 3 3v-2c-.551 0-1-.449-1-1s.449-1 1-1v-1.25h-1z" fill="#b4bcc0"/><path d="m16 3h-1v4.171.579h1z" fill="#b4bcc0"/><g fill="#607d8b"><path d="m21 22c-.552 0-1-.448-1-1v-18c0-.552.448-1 1-1s1 .448 1 1v18c0 .552-.448 1-1 1z"/><path d="m3 22c-.552 0-1-.448-1-1v-18c0-.552.448-1 1-1s1 .448 1 1v18c0 .552-.448 1-1 1z"/><path d="m23 4h-22c-.552 0-1-.448-1-1s.448-1 1-1h22c.552 0 1 .448 1 1s-.448 1-1 1z"/></g><path d="m4 4h-2v17c0 .552.448 1 1 1s1-.448 1-1z" fill="#546d79"/><path d="m12 2h-11c-.552 0-1 .448-1 1 0 .552.448 1 1 1h1 2 8z" fill="#546d79"/></svg>