<svg id="color" height="512" viewBox="0 0 24 24" width="512" xmlns="http://www.w3.org/2000/svg"><path d="m18 12h-1c-.553 0-1-.448-1-1s.447-1 1-1h1c.553 0 1 .448 1 1s-.447 1-1 1z" fill="#2196f3"/><path d="m13.585.079c-.37-.184-.82-.034-1.006.335l-.579 1.159-.579-1.158c-.186-.37-.635-.52-1.006-.335-.371.186-.521.636-.336 1.006l1.171 2.342v1.822c0 .414.336.75.75.75s.75-.336.75-.75v-1.823l1.171-2.342c.185-.37.035-.82-.336-1.006z" fill="#607d8b"/><path d="m21.25 22.5h-18.5c-.414 0-.75-.336-.75-.75v-14.5c0-.414.336-.75.75-.75h18.5c.414 0 .75.336.75.75v14.5c0 .414-.336.75-.75.75z" fill="#cfd8dc"/><path d="m23 8h-22c-.553 0-1-.448-1-1s.447-1 1-1h22c.553 0 1 .448 1 1s-.447 1-1 1z" fill="#607d8b"/><g fill="#2196f3"><path d="m12.5 12h-1c-.553 0-1-.448-1-1s.447-1 1-1h1c.553 0 1 .448 1 1s-.447 1-1 1z"/><path d="m7 12h-1c-.553 0-1-.448-1-1s.447-1 1-1h1c.553 0 1 .448 1 1s-.447 1-1 1z"/><path d="m16.25 14h-8.5c-.96 0-1.75.79-1.75 1.75v5.5c0 .41.34.75.75.75h10.5c.41 0 .75-.34.75-.75v-5.5c0-.96-.79-1.75-1.75-1.75z"/></g><path d="m13 14v8h-2v-8z" fill="#cfd8dc"/><path d="m23 23h-22c-.553 0-1-.448-1-1s.447-1 1-1h22c.553 0 1 .448 1 1s-.447 1-1 1z" fill="#607d8b"/><path d="m10.749 0c-.112 0-.227.025-.334.079-.371.186-.521.636-.336 1.006l1.171 2.342v1.823c0 .414.336.75.75.75v-4.427l-.579-1.158c-.132-.263-.396-.415-.672-.415z" fill="#546d79"/><path d="m6 12c-.553 0-1-.448-1-1s.447-1 1-1h1c.553 0 1 .448 1 1s-.447 1-1 1zm6-4h-10v13h4v-5.25c0-.96.79-1.75 1.75-1.75h3.25 1v-2h-.5c-.553 0-1-.448-1-1s.447-1 1-1h.5z" fill="#b4bcc0"/><path d="m12 6h-11c-.553 0-1 .448-1 1s.447 1 1 1h1 10z" fill="#546d79"/><path d="m12 10h-.5c-.553 0-1 .448-1 1s.447 1 1 1h.5z" fill="#1d83d4"/><path d="m7 10h-1c-.553 0-1 .448-1 1s.447 1 1 1h1c.553 0 1-.448 1-1s-.447-1-1-1z" fill="#1d83d4"/><path d="m11 14h-3.25c-.96 0-1.75.79-1.75 1.75v5.25h5z" fill="#1d83d4"/><path d="m12 14h-1v7h1z" fill="#b4bcc0"/><path d="m12 21h-1-5-4-1c-.553 0-1 .448-1 1s.447 1 1 1h11z" fill="#546d79"/><path d="m19.25 6c-.414 0-.75-.336-.75-.75v-1.792l-.106.178c-.271.452-1.016.452-1.287 0l-.107-.178v1.792c0 .414-.336.75-.75.75s-.75-.336-.75-.75v-4.5c0-.337.225-.633.55-.723.325-.091.669.048.844.337l.856 1.428.856-1.428c.174-.289.519-.428.844-.337.325.09.55.386.55.723v4.5c0 .414-.336.75-.75.75z" fill="#607d8b"/><path d="m16.251 0c-.067 0-.134.009-.201.028-.325.09-.55.386-.55.723v4.5c0 .413.336.749.75.749s.75-.336.75-.75v-1.792l.106.178c.136.226.39.339.644.339v-2.183l-.856-1.428c-.139-.229-.385-.364-.643-.364z" fill="#546d79"/><path d="m7.25 6h-1.5c-.965 0-1.75-.785-1.75-1.75v-2.5c0-.965.785-1.75 1.75-1.75h1.5c.414 0 .75.336.75.75s-.336.75-.75.75h-1.5c-.138 0-.25.112-.25.25v2.5c0 .138.112.25.25.25h.75v-.75h-.25c-.414 0-.75-.336-.75-.75s.336-.75.75-.75h1c.414 0 .75.336.75.75v2.25c0 .414-.336.75-.75.75z" fill="#607d8b"/><path d="m6.125 2.26c-.355.06-.625.369-.625.74s.27.68.625.74zm0-2.26h-.375c-.965 0-1.75.785-1.75 1.75v2.5c0 .965.785 1.75 1.75 1.75h.375v-1.5h-.375c-.138 0-.25-.112-.25-.25v-2.5c0-.138.112-.25.25-.25h.375z" fill="#546d79"/></svg>