<svg id="color" height="512" viewBox="0 0 24 24" width="512" xmlns="http://www.w3.org/2000/svg"><path d="m15.75 20h-10.5c-1.24 0-2.25-1.01-2.25-2.25v-6.25h-1.75c-.689 0-1.25-.561-1.25-1.25 0-.348.148-.682.406-.916l9.576-9.127c.29-.275.746-.275 1.035 0l2.483 2.363v-.82c0-.414.336-.75.75-.75h3c.414 0 .75.336.75.75v5.108l2.607 2.488c.245.222.393.556.393.904 0 .689-.561 1.25-1.25 1.25h-1.75v6.25c0 1.24-1.01 2.25-2.25 2.25z" fill="#607d8b"/><path d="m10.5 0c-.186 0-.373.069-.518.207l-9.576 9.127c-.258.234-.406.568-.406.916 0 .689.561 1.25 1.25 1.25h1.75v6.25c0 1.24 1.01 2.25 2.25 2.25h5.25z" fill="#546d79"/><path d="m17.207 20.207-1.414-1.414 3-3 1.414 1.414z" fill="#cfd8dc"/><path d="m16.336 24c-.468 0-.907-.182-1.238-.513l-2.585-2.585c-.331-.331-.513-.77-.513-1.238 0-.467.182-.907.513-1.237l.586-.586c.682-.681 1.792-.682 2.474 0l2.587 2.586c.683.683.683 1.793 0 2.475l-.586.586c-.332.33-.771.512-1.238.512z" fill="#2196f3"/><path d="m21.664 18.671c-.447 0-.896-.17-1.236-.511l-2.587-2.586c-.683-.683-.683-1.793 0-2.475l.586-.586c.661-.661 1.814-.661 2.476 0l2.585 2.585c.331.33.513.77.513 1.237s-.182.907-.513 1.237l-.586.586c-.341.342-.79.513-1.238.513z" fill="#2196f3"/><path d="m18.427 16.159-2.268 2.268.707.707 2.268-2.268z" fill="#b4bcc0"/><g fill="#1d83d4"><path d="m14.336 17.329c-.448 0-.897.171-1.238.511l-.586.586c-.33.331-.512.771-.512 1.238 0 .468.182.907.513 1.237l1.293 1.293 3.061-3.061-.707-.707-.587-.587c-.341-.339-.789-.51-1.237-.51z"/><path d="m19.664 12.017c-.453 0-.907.165-1.237.496l-.586.586c-.683.682-.683 1.792 0 2.475l.586.586.707.707 3.061-3.061-1.292-1.292c-.331-.332-.785-.497-1.239-.497z"/></g></svg>