<svg id="color" height="512" viewBox="0 0 24 24" width="512" xmlns="http://www.w3.org/2000/svg"><g fill="#cfd8dc"><path d="m4.12 24c-.45 0-.873-.182-1.191-.514l-1.526-1.586c-.318-.331-.493-.77-.493-1.238s.175-.907.493-1.238l.763-.793c.282-.293.739-.293 1.021 0l2.886 3.002c.282.293.282.768 0 1.061l-.763.793c-.318.331-.741.513-1.19.513z"/><path d="m12.164 15.586c-.192 0-.384-.073-.53-.22l-3-3c-.293-.293-.293-.768 0-1.061l.793-.793c.662-.661 1.815-.661 2.475.001l1.585 1.585c.331.33.513.77.513 1.237s-.182.907-.513 1.237l-.793.793c-.146.148-.338.221-.53.221z"/><path d="m6.641 19.454-1.36-1.415 3.367-3.503 1.36 1.415z"/></g><path d="m6.25 23.585c-.448 0-.896-.17-1.237-.512l-4.086-4.086c-.682-.682-.682-1.792 0-2.475l.586-.586c.369-.369 1.148-.826 2.225.25l4.086 4.086c.682.682.682 1.792 0 2.475l-.336.336c-.342.342-.79.512-1.238.512z" fill="#607d8b"/><path d="m11.5 18.335c-.448 0-.896-.17-1.237-.512l-4.086-4.086c-.682-.682-.682-1.792 0-2.475l.336-.336c.683-.683 1.792-.683 2.475 0l4.086 4.086c.682.682.682 1.792 0 2.475l-.336.336c-.342.342-.79.512-1.238.512z" fill="#607d8b"/><path d="m1.384 19.444c-.306.329-.473.759-.473 1.217 0 .468.175.908.493 1.238l.648.674 1.231-1.231z" fill="#b4bcc0"/><path d="m10.665 10.017c-.453 0-.907.165-1.238.496l-.427.426 2.343 2.343 1.664-1.664-1.105-1.105c-.33-.331-.783-.496-1.237-.496z" fill="#b4bcc0"/><path d="m7.828 15.389-2.391 2.487.656.656 2.439-2.439z" fill="#b4bcc0"/><path d="m2.439 15.507c-.414 0-.729.222-.926.42l-.586.586c-.682.682-.682 1.792 0 2.475l.457.457 1.899 1.899 2.811-2.811-.656-.656-1.7-1.7c-.502-.501-.938-.67-1.299-.67z" fill="#546d79"/><path d="m7.75 10.415c-.448 0-.896.171-1.237.512l-.336.336c-.682.682-.682 1.792 0 2.475l1.651 1.651.704.704 2.811-2.811-2.343-2.343-.013-.013c-.341-.341-.789-.511-1.237-.511z" fill="#546d79"/><path d="m12.297 5.573c-.185 0-.37-.073-.51-.22l-.763-.794c-.318-.331-.493-.771-.493-1.238 0-.468.175-.908.494-1.239l1.525-1.587c.635-.66 1.745-.661 2.381 0l.763.794c.282.293.282.768 0 1.061l-2.886 3.002c-.141.148-.326.221-.511.221z" fill="#cfd8dc"/><path d="m20.791 13.993c-.45 0-.873-.182-1.19-.513l-.763-.794c-.282-.293-.282-.768 0-1.061l2.886-3.002c.282-.293.738-.293 1.02 0l.763.794c.318.33.493.77.493 1.237 0 .468-.175.908-.494 1.239l-1.525 1.587c-.317.331-.74.513-1.19.513z" fill="#cfd8dc"/><path d="m18.269 9.447-3.368-3.503 1.361-1.415 3.367 3.503z" fill="#cfd8dc"/><path d="m12.5 8.335c-.448 0-.896-.17-1.237-.512l-.336-.336c-.682-.682-.682-1.792 0-2.475l4.086-4.086c.683-.683 1.792-.683 2.475 0l.336.336c.682.682.682 1.792 0 2.475l-4.086 4.086c-.342.342-.79.512-1.238.512z" fill="#607d8b"/><path d="m17.75 13.585c-.448 0-.896-.17-1.237-.512l-.336-.336c-.682-.682-.682-1.792 0-2.475l4.086-4.086c.683-.683 1.792-.683 2.475 0l.336.336c.682.682.682 1.792 0 2.475l-4.086 4.086c-.342.342-.79.512-1.238.512z" fill="#607d8b"/><path d="m11.787 1.289-.763.794c-.318.331-.494.771-.494 1.239 0 .467.175.907.493 1.238l.175.182 1.986-1.986z" fill="#b4bcc0"/><path d="m21.052 11.008-1.952 1.952.5.52c.318.331.741.513 1.19.513.45 0 .873-.182 1.19-.513l.717-.746z" fill="#b4bcc0"/><path d="m15.928 5.633-.676.676 2.391 2.487.666-.666z" fill="#b4bcc0"/><path d="m13.185 2.755-1.986 1.986-.272.272c-.682.682-.682 1.793 0 2.475l.336.336c.341.341.789.512 1.237.512s.896-.17 1.237-.512l1.515-1.515.676-.676z" fill="#546d79"/><path d="m18.309 8.13-.666.666-1.467 1.467c-.682.682-.682 1.793 0 2.475l.336.336c.341.341.789.512 1.237.512s.896-.17 1.237-.512l.113-.113 1.952-1.952z" fill="#546d79"/></svg>