<svg id="color" height="512" viewBox="0 0 24 24" width="512" xmlns="http://www.w3.org/2000/svg"><path d="m22.14 11.49-13.36-5.43c-.26-.11-.56-.06-.78.13l-1.05.94c-1.7 1.5-3.99 1.52-5.71.05-.22-.19-.54-.23-.8-.11-.27.12-.44.39-.44.68v5.92c8.73-2.73 16.31 1.49 23.99.44-.05-1.16-.76-2.18-1.85-2.62z" fill="#cfd8dc"/><path d="m23.99 14.11c-7.68 1.05-15.26-3.17-23.99-.44v.58c0 1.52 1.23 2.75 2.75 2.75h18.5c1.52 0 2.75-1.23 2.75-2.75 0-.05 0-.09-.01-.14z" fill="#607d8b"/><path d="m12.74 7.67-.03.04-2 2c-.2.19-.45.29-.71.29s-.51-.1-.71-.29c-.39-.39-.39-1.03 0-1.42l1.44-1.44z" fill="#607d8b"/><path d="m10.73 6.85-1.44 1.44c-.39.39-.39 1.03 0 1.42.016.015.032.03.049.044l2.4-2.492z" fill="#546d79"/><path d="m16.3 9.12-1.59 1.59c-.2.19-.45.29-.71.29s-.51-.1-.71-.29c-.39-.39-.39-1.03 0-1.42l.99-.99z" fill="#607d8b"/><path d="m14.28 8.3-.99.99c-.39.39-.39 1.03 0 1.42.011.01.021.02.032.029l1.889-2.061z" fill="#546d79"/></svg>