<svg id="color" height="512" viewBox="0 0 24 24" width="512" xmlns="http://www.w3.org/2000/svg"><path d="m14.15 5.5h-9.3c-.212 0-.414-.09-.556-.247s-.211-.367-.19-.578l.31-3.1c.089-.897.837-1.575 1.741-1.575h6.69c.903 0 1.651.677 1.741 1.576l.31 3.1c.021.211-.048.421-.19.578-.142.156-.344.246-.556.246z" fill="#cfd8dc"/><path d="m12.845 24h-6.69c-.903 0-1.652-.678-1.741-1.576l-.31-3.099c-.022-.211.048-.421.19-.578s.344-.247.556-.247h9.3c.212 0 .414.09.556.247s.211.367.19.578l-.31 3.1c-.089.897-.837 1.575-1.741 1.575z" fill="#cfd8dc"/><path d="m14.25 20h-9.5c-1.517 0-2.75-1.233-2.75-2.75v-10.5c0-1.517 1.233-2.75 2.75-2.75h9.5c1.517 0 2.75 1.233 2.75 2.75v10.5c0 1.517-1.233 2.75-2.75 2.75z" fill="#607d8b"/><path d="m9.5 0h-3.345c-.904 0-1.652.678-1.741 1.576l-.249 2.487c.189-.041.384-.063.585-.063h4.75z" fill="#b4bcc0"/><path d="m4.165 19.937.249 2.486c.089.899.837 1.577 1.741 1.577h3.345v-4h-4.75c-.201 0-.396-.022-.585-.063z" fill="#b4bcc0"/><path d="m9.5 4h-4.75c-.201 0-.396.022-.585.063-1.236.268-2.165 1.371-2.165 2.687v10.5c0 1.316.929 2.419 2.165 2.687.189.041.384.063.585.063h4.75z" fill="#546d79"/><path d="m15.207 14.19-1.414-1.414 3-3 1.414 1.414z" fill="#cfd8dc"/><path d="m14.336 17.983c-.468 0-.907-.182-1.238-.513l-2.585-2.585c-.331-.331-.513-.77-.513-1.238 0-.467.182-.907.513-1.237l.586-.586c.682-.681 1.792-.682 2.474 0l2.587 2.586c.683.683.683 1.793 0 2.475l-.586.586c-.332.33-.771.512-1.238.512z" fill="#2196f3"/><path d="m19.664 12.654c-.447 0-.896-.17-1.236-.511l-2.587-2.586c-.683-.683-.683-1.793 0-2.475l.586-.586c.661-.661 1.814-.661 2.476 0l2.585 2.585c.33.331.512.77.512 1.238 0 .467-.182.907-.513 1.237l-.586.586c-.341.341-.789.512-1.237.512z" fill="#2196f3"/><path d="m16.427 10.142-2.268 2.268.707.707 2.268-2.268z" fill="#b4bcc0"/><g fill="#1d83d4"><path d="m12.336 11.312c-.448 0-.897.171-1.238.511l-.586.586c-.33.331-.512.771-.512 1.238 0 .468.182.907.513 1.237l1.293 1.293 3.061-3.061-.707-.707-.587-.587c-.341-.339-.789-.51-1.237-.51z"/><path d="m17.664 6c-.453 0-.907.165-1.237.496l-.586.586c-.683.682-.683 1.792 0 2.475l.586.586.707.707 3.061-3.061-1.292-1.292c-.331-.332-.785-.497-1.239-.497z"/></g></svg>