<svg id="color" height="512" viewBox="0 0 24 24" width="512" xmlns="http://www.w3.org/2000/svg"><path d="m13.5 19c-3.032 0-5.5-2.467-5.5-5.5v-3.5h-2.5c-1.102 0-2 .897-2 2v1.75h-2v-1.75c0-2.206 1.794-4 4-4h2.5v-2.5c0-2.206 1.794-4 4-4h1.5v2h-1.5c-1.102 0-2 .897-2 2v2.5h3.5c3.032 0 5.5 2.467 5.5 5.5s-2.468 5.5-5.5 5.5zm-3.5-9v3.5c0 1.93 1.57 3.5 3.5 3.5s3.5-1.57 3.5-3.5-1.57-3.5-3.5-3.5z" fill="#cfd8dc"/><path d="m3.25 13h-1.5c-.96 0-1.75.79-1.75 1.75v2.25h5v-2.25c0-.96-.79-1.75-1.75-1.75z" fill="#607d8b"/><path d="m0 17v4.5c0 1.38 1.12 2.5 2.5 2.5s2.5-1.12 2.5-2.5v-4.5z" fill="#cfd8dc"/><path d="m21.5 0h-4.5v5h4.5c1.38 0 2.5-1.12 2.5-2.5s-1.12-2.5-2.5-2.5z" fill="#cfd8dc"/><path d="m14.75 0c-.96 0-1.75.79-1.75 1.75v1.5c0 .96.79 1.75 1.75 1.75h2.25v-5z" fill="#607d8b"/><path d="m8 8h-2.5c-2.206 0-4 1.794-4 4v1.018c.082-.012.165-.018.25-.018h1.5c.085 0 .168.006.25.018v-1.018c0-1.103.897-2 2-2h2.5v3.5c0 3.033 2.468 5.5 5.5 5.5 1.516 0 2.891-.617 3.887-1.613l-1.414-1.414c-.633.634-1.508 1.027-2.473 1.027-1.93 0-3.5-1.57-3.5-3.5v-3.5z" fill="#b4bcc0"/><path d="m3.25 13h-1.5c-.085 0-.168.006-.25.018-.843.123-1.5.857-1.5 1.732v2.25h5v-2.25c0-.875-.657-1.609-1.5-1.732-.082-.012-.165-.018-.25-.018z" fill="#546d79"/><path d="m5 17h-5v4.5c0 1.38 1.12 2.5 2.5 2.5s2.5-1.12 2.5-2.5z" fill="#b4bcc0"/></svg>