<svg id="color" height="512" viewBox="0 0 24 24" width="512" xmlns="http://www.w3.org/2000/svg"><path d="m20 7h-16c-1.103 0-2 .897-2 2v10h20v-10c0-1.103-.897-2-2-2z" fill="#607d8b"/><path d="m23 19h-22c-.552 0-1 .447-1 1s.448 1 1 1h22c.552 0 1-.447 1-1s-.448-1-1-1z" fill="#90a4ae"/><path d="m20 19h-16v-10h16z" fill="#fff"/><path d="m12 7h-8c-1.103 0-2 .897-2 2v10h10-8v-10h8z" fill="#546d79"/><path d="m12 19h-10-1c-.552 0-1 .447-1 1s.448 1 1 1h11z" fill="#7d8f97"/><path d="m11.207 11.207-1.414-1.414 3-3 1.414 1.414z" fill="#cfd8dc"/><path d="m10.336 15c-.468 0-.907-.182-1.238-.513l-2.585-2.585c-.331-.331-.513-.77-.513-1.238 0-.467.182-.907.513-1.237l.586-.586c.681-.681 1.792-.682 2.474-.001l2.586 2.586c.682.683.682 1.793 0 2.475l-.586.586c-.33.331-.77.513-1.237.513z" fill="#2196f3"/><path d="m15.664 9.671c-.448 0-.896-.17-1.237-.511l-2.586-2.586c-.682-.683-.682-1.793 0-2.475l.586-.586c.662-.661 1.814-.661 2.475 0l2.585 2.585c.331.331.513.77.513 1.238 0 .467-.182.907-.513 1.237l-.586.586c-.34.341-.789.512-1.237.512z" fill="#2196f3"/><path d="m12.427 7.159-2.268 2.268.677.677 2.254-2.282z" fill="#b4bcc0"/><g fill="#1d83d4"><path d="m8.336 8.33c-.448 0-.896.17-1.237.511l-.586.586c-.331.33-.513.77-.513 1.237 0 .468.182.907.513 1.237l1.282 1.282 3.042-3.079-.677-.677-.587-.587c-.341-.34-.789-.511-1.237-.51z"/><path d="m13.664 3.017c-.453 0-.907.165-1.237.496l-.586.586c-.682.682-.682 1.792 0 2.475l.586.586.663.663 3.035-3.072.008-.005-1.232-1.232c-.33-.332-.783-.497-1.237-.497z"/></g></svg>