<svg id="color" height="512" viewBox="0 0 24 24" width="512" xmlns="http://www.w3.org/2000/svg"><path d="m22 14h-4.5c-.414 0-.75-.336-.75-.75v-2.5c0-.414.336-.75.75-.75h4.5c1.103 0 2 .897 2 2s-.897 2-2 2z" fill="#cfd8dc"/><path d="m0 12c0-1.103.897-2 2-2h4.5c.414 0 .75.336.75.75v2.5c0 .414-.336.75-.75.75h-4.5c-1.103 0-2-.897-2-2z" fill="#cfd8dc"/><path d="m14.5 17c-.159 0-.315-.05-.446-.147-.191-.141-.304-.365-.304-.603v-8.5c0-.238.113-.462.304-.603s.437-.184.666-.114l1.838.565c1.162.358 1.942 1.414 1.942 2.629v3.546c0 1.215-.78 2.271-1.941 2.628l-1.838.565z" fill="#607d8b"/><path d="m9.5 17-.221-.033-1.838-.565c-1.161-.358-1.941-1.414-1.941-2.629v-3.546c0-1.215.78-2.271 1.941-2.628l1.838-.565c.228-.07.475-.027.666.114s.304.365.304.603v8.5c0 .238-.113.462-.304.603-.13.096-.286.146-.445.146z" fill="#607d8b"/><path d="m12 21c-1.654 0-3-1.346-3-3v-12c0-1.654 1.346-3 3-3s3 1.346 3 3v12c0 1.654-1.346 3-3 3z" fill="#cfd8dc"/><path d="m24 12h-5.5v1.773c0 .076-.003.152-.009.227h3.509c1.103 0 2-.897 2-2z" fill="#b4bcc0"/><path d="m5.5 12h-5.5c0 1.103.897 2 2 2h3.509c-.006-.075-.009-.151-.009-.227z" fill="#b4bcc0"/><path d="m18.5 12h-3.5v4.881l1.559-.48c1.088-.335 1.841-1.284 1.932-2.401.006-.075.009-.151.009-.227z" fill="#546d79"/><path d="m9 12h-3.5v1.773c0 .076.003.152.009.227.09 1.118.844 2.066 1.932 2.401l1.559.48z" fill="#546d79"/><path d="m15 12h-6v4.881 1.119c0 1.654 1.346 3 3 3s3-1.346 3-3v-1.119z" fill="#b4bcc0"/></svg>