<svg id="color" height="512" viewBox="0 0 24 24" width="512" xmlns="http://www.w3.org/2000/svg"><g fill="#cfd8dc"><path d="m16 3c-.256 0-.512-.098-.707-.293-.391-.391-.391-1.023 0-1.414l1-1c.391-.391 1.023-.391 1.414 0s.391 1.023 0 1.414l-1 1c-.195.195-.451.293-.707.293z"/><path d="m6.707 12.707-1.414-1.414 6-6 1.414 1.414z"/><path d="m1 18c-.256 0-.512-.098-.707-.293-.391-.391-.391-1.023 0-1.414l1-1c.391-.391 1.023-.391 1.414 0s.391 1.023 0 1.414l-1 1c-.195.195-.451.293-.707.293z"/><path d="m3.836 17.999c-.448 0-.896-.171-1.237-.512l-2.086-2.086c-.683-.683-.683-1.792 0-2.475l1.043-1.043c.293-.293.768-.293 1.061 0l3.5 3.5c.293.293.293.768 0 1.061l-1.043 1.043c-.342.341-.79.512-1.238.512z"/><path d="m15.914 6.336c-.192 0-.384-.073-.53-.22l-3.5-3.5c-.293-.293-.293-.768 0-1.061l1.043-1.043c.682-.683 1.793-.683 2.475 0l2.086 2.086c.329.331.512.77.512 1.238 0 .467-.182.907-.513 1.237l-1.043 1.043c-.146.147-.338.22-.53.22z"/></g><path d="m7.086 17.749c-.448 0-.897-.171-1.237-.512l-5.086-5.086c-.331-.33-.513-.77-.513-1.237s.182-.907.513-1.237l.586-.586c.681-.682 1.791-.681 2.474-.001l5.086 5.086c.683.683.683 1.792 0 2.475l-.586.586c-.341.341-.789.512-1.237.512z" fill="#607d8b"/><path d="m15.414 9.42c-.448 0-.895-.17-1.237-.511l-5.086-5.086c-.331-.33-.513-.77-.513-1.237 0-.468.183-.907.513-1.238l.586-.585c.682-.683 1.793-.683 2.475 0l5.086 5.086c.331.33.513.77.513 1.237s-.182.907-.513 1.237l-.586.586c-.341.341-.79.511-1.238.511z" fill="#607d8b"/><path d="m17 0c-.256 0-.512.098-.707.293l-.556.556.707.707 1.263-1.263c-.195-.195-.451-.293-.707-.293z" fill="#b4bcc0"/><path d="m10.927 5.659-5.268 5.268.707.707 5.268-5.268z" fill="#b4bcc0"/><path d="m.849 15.737-.556.556c-.391.391-.391 1.023 0 1.414l1.263-1.263z" fill="#b4bcc0"/><path d="m1.025 12.414-.513.513c-.683.683-.683 1.792 0 2.475l.336.336.707.707 1.75-1.75z" fill="#b4bcc0"/><path d="m14.164.001c-.448 0-.896.171-1.237.512l-.513.513 2.28 2.28 1.75-1.75-.707-.707-.336-.336c-.34-.342-.789-.512-1.237-.512z" fill="#b4bcc0"/><path d="m2.585 8.58c-.448 0-.896.17-1.237.511l-.585.586c-.331.331-.513.77-.513 1.237 0 .468.182.907.513 1.237l.263.263 2.28 2.28 3.061-3.061-.707-.707-1.837-1.836c-.342-.34-.79-.51-1.238-.51z" fill="#546d79"/><path d="m10.914.251c-.448 0-.896.171-1.237.512l-.586.585c-.33.331-.513.77-.513 1.238 0 .467.182.907.513 1.237l1.836 1.836.707.707 3.061-3.061-2.28-2.28-.263-.263c-.341-.341-.79-.511-1.238-.511z" fill="#546d79"/><path d="m17.053 23.852c-.62-.461-6.053-4.602-6.053-8.114 0-2.061 1.683-3.738 3.75-3.738 1.064 0 2.054.446 2.75 1.193.696-.747 1.687-1.193 2.75-1.193 2.067 0 3.75 1.677 3.75 3.738 0 3.512-5.433 7.652-6.053 8.113-.265.199-.629.199-.894.001z" fill="#f44336"/><path d="m14.75 12c-2.067 0-3.75 1.677-3.75 3.738 0 3.512 5.433 7.652 6.053 8.113.133.1.29.149.447.149v-10.807c-.696-.747-1.687-1.193-2.75-1.193z" fill="#d43a2f"/></svg>