<svg id="color" height="512" viewBox="0 0 24 24" width="512" xmlns="http://www.w3.org/2000/svg"><g fill="#cfd8dc"><path d="m20.75 4.25c-.256 0-.512-.098-.707-.293-.391-.391-.391-1.023 0-1.414l1.25-1.25c.391-.391 1.023-.391 1.414 0s.391 1.023 0 1.414l-1.25 1.25c-.195.195-.451.293-.707.293z"/><path d="m7.5 17.5c-.256 0-.512-.098-.707-.293-.391-.391-.391-1.023 0-1.414l9-9c.391-.391 1.023-.391 1.414 0s.391 1.023 0 1.414l-9 9c-.195.195-.451.293-.707.293z"/><path d="m2 23c-.256 0-.512-.098-.707-.293-.391-.391-.391-1.023 0-1.414l1.25-1.25c.391-.391 1.023-.391 1.414 0s.391 1.023 0 1.414l-1.25 1.25c-.195.195-.451.293-.707.293z"/><path d="m6.336 24c-.468 0-.907-.182-1.238-.513l-4.585-4.585c-.331-.331-.513-.77-.513-1.238 0-.467.182-.907.513-1.237l1.293-1.293c.293-.293.768-.293 1.061 0l6 6c.293.293.293.768 0 1.061l-1.293 1.293c-.331.33-.771.512-1.238.512z"/><path d="m21.664 9.086c-.192 0-.384-.073-.53-.22l-6-6c-.293-.293-.293-.768 0-1.061l1.293-1.293c.662-.661 1.814-.661 2.475 0l4.585 4.585c.331.332.513.771.513 1.239 0 .467-.182.907-.513 1.237l-1.293 1.293c-.146.147-.338.22-.53.22z"/></g><path d="m9.836 23.5c-.468 0-.907-.182-1.238-.513l-7.585-7.585c-.331-.33-.513-.77-.513-1.237s.182-.907.513-1.237l.586-.586c.682-.681 1.793-.682 2.474 0l7.586 7.586c.682.683.682 1.793 0 2.475l-.586.586c-.33.329-.77.511-1.237.511z" fill="#607d8b"/><path d="m21.164 12.171c-.448 0-.896-.17-1.237-.511l-7.586-7.586c-.682-.683-.682-1.793 0-2.475l.586-.586c.662-.661 1.815-.661 2.475 0l7.585 7.585c.331.33.513.77.513 1.237s-.182.907-.513 1.237l-.586.586c-.34.342-.789.513-1.237.513z" fill="#607d8b"/><path d="m22 1c-.256 0-.512.098-.707.293l-.806.806.707.707 1.513-1.513c-.195-.195-.451-.293-.707-.293z" fill="#b4bcc0"/><path d="m15.427 7.159-8.268 8.268.707.707 8.268-8.268z" fill="#b4bcc0"/><path d="m2.099 20.487-.806.806c-.391.391-.391 1.023 0 1.414l1.513-1.513z" fill="#b4bcc0"/><path d="m1.275 15.664-.763.763c-.33.33-.512.77-.512 1.237 0 .468.182.907.513 1.237l1.586 1.586.707.707 2-2z" fill="#b4bcc0"/><path d="m17.664.017c-.453 0-.907.165-1.237.496l-.763.763 3.53 3.53 2-2-.707-.707-1.585-1.585c-.331-.332-.784-.497-1.238-.497z" fill="#b4bcc0"/><path d="m2.837 11.83c-.448 0-.897.171-1.238.511l-.586.586c-.331.33-.513.77-.513 1.237 0 .468.182.907.513 1.237l.263.263 3.53 3.53 3.061-3.061-.707-.707-3.087-3.086c-.341-.34-.788-.51-1.236-.51z" fill="#546d79"/><path d="m14.165.517c-.453 0-.907.165-1.238.496l-.586.586c-.682.682-.682 1.792 0 2.475l3.086 3.086.707.707 3.061-3.061-3.53-3.53-.262-.262c-.331-.332-.785-.497-1.238-.497z" fill="#546d79"/></svg>