<svg id="color" height="512" viewBox="0 0 24 24" width="512" xmlns="http://www.w3.org/2000/svg"><g fill="#607d8b"><path d="m18.5 7.75c-.552 0-1-.448-1-1v-5.75c0-.552.448-1 1-1s1 .448 1 1v5.75c0 .552-.448 1-1 1z"/><path d="m5.5 12.5c-.552 0-1-.448-1-1v-10.5c0-.552.448-1 1-1s1 .448 1 1v10.5c0 .552-.448 1-1 1z"/><path d="m23 2h-22c-.552 0-1-.448-1-1s.448-1 1-1h22c.552 0 1 .448 1 1s-.448 1-1 1z"/></g><path d="m6.5 2h-2v9.5c0 .552.448 1 1 1s1-.448 1-1z" fill="#546d79"/><path d="m12.5 0h-11.5c-.552 0-1 .448-1 1 0 .552.448 1 1 1h3.5 2 6z" fill="#546d79"/><path d="m7.25 14.75h-3.5c-.414 0-.75-.336-.75-.75v-1.25c0-.965.785-1.75 1.75-1.75h1.5c.965 0 1.75.785 1.75 1.75v1.25c0 .414-.336.75-.75.75z" fill="#cfd8dc"/><path d="m5.5 24c-3.033 0-5.5-2.467-5.5-5.5s2.467-5.5 5.5-5.5 5.5 2.467 5.5 5.5-2.467 5.5-5.5 5.5zm0-9c-1.93 0-3.5 1.57-3.5 3.5s1.57 3.5 3.5 3.5 3.5-1.57 3.5-3.5-1.57-3.5-3.5-3.5z" fill="#cfd8dc"/><path d="m5.5 11h-.75c-.965 0-1.75.785-1.75 1.75v.852c.75-.385 1.6-.602 2.5-.602z" fill="#b4bcc0"/><path d="m5.5 13c-.9 0-1.75.217-2.5.602-1.779.912-3 2.765-3 4.898 0 3.033 2.467 5.5 5.5 5.5v-2c-1.93 0-3.5-1.57-3.5-3.5s1.57-3.5 3.5-3.5z" fill="#b4bcc0"/><path d="m20.25 9.75h-3.5c-.414 0-.75-.336-.75-.75v-1.25c0-.965.785-1.75 1.75-1.75h1.5c.965 0 1.75.785 1.75 1.75v1.25c0 .414-.336.75-.75.75z" fill="#cfd8dc"/><path d="m18.5 19c-3.033 0-5.5-2.467-5.5-5.5s2.467-5.5 5.5-5.5 5.5 2.467 5.5 5.5-2.467 5.5-5.5 5.5zm0-9c-1.93 0-3.5 1.57-3.5 3.5s1.57 3.5 3.5 3.5 3.5-1.57 3.5-3.5-1.57-3.5-3.5-3.5z" fill="#cfd8dc"/><path d="m18.5 6h-.75c-.965 0-1.75.785-1.75 1.75v.852c.75-.385 1.6-.602 2.5-.602z" fill="#b4bcc0"/><path d="m18.5 8c-.9 0-1.75.217-2.5.602-1.779.912-3 2.765-3 4.898 0 3.033 2.467 5.5 5.5 5.5v-2c-1.93 0-3.5-1.57-3.5-3.5s1.57-3.5 3.5-3.5z" fill="#b4bcc0"/></svg>