<svg id="color" height="512" viewBox="0 0 24 24" width="512" xmlns="http://www.w3.org/2000/svg"><path d="m18 3c0-1.654-1.346-3-3-3h-10c-1.654 0-3 1.346-3 3v18c0 1.654 1.346 3 3 3h10c1.654 0 3-1.346 3-3z" fill="#607d8b"/><path d="m16 21c0 .552-.448 1-1 1h-10c-.552 0-1-.448-1-1v-18c0-.552.448-1 1-1h.5c.552 0 1 .448 1 1s.448 1 1 1h5c.552 0 1-.448 1-1s.448-1 1-1h.5c.552 0 1 .448 1 1z" fill="#fff"/><path d="m10.125 0h-5.125c-1.654 0-3 1.346-3 3v18c0 1.654 1.346 3 3 3h5.125v-2h-5.125c-.552 0-1-.448-1-1v-18c0-.552.448-1 1-1h.5c.552 0 1 .448 1 1s.448 1 1 1h2.625z" fill="#546d79"/><path d="m15.207 14.207-1.414-1.414 3-3 1.414 1.414z" fill="#cfd8dc"/><path d="m14.336 18c-.468 0-.907-.182-1.238-.513l-2.585-2.585c-.331-.331-.513-.77-.513-1.238 0-.467.182-.907.513-1.237l.586-.586c.682-.681 1.792-.682 2.474 0l2.586 2.586c.682.683.682 1.793 0 2.475l-.586.586c-.33.33-.77.512-1.237.512z" fill="#2196f3"/><path d="m19.664 12.671c-.448 0-.896-.17-1.237-.511l-2.586-2.586c-.682-.683-.682-1.793 0-2.475l.586-.586c.662-.661 1.814-.661 2.475 0l2.585 2.585c.331.331.513.77.513 1.238 0 .467-.182.907-.513 1.237l-.586.586c-.34.341-.789.512-1.237.512z" fill="#2196f3"/><path d="m16.427 10.159-2.268 2.268.745.745 2.254-2.282z" fill="#b4bcc0"/><g fill="#1d83d4"><path d="m12.336 11.33c-.448 0-.897.171-1.238.511l-.586.586c-.33.33-.512.77-.512 1.237 0 .468.182.907.513 1.237l1.349 1.349 3.042-3.079-.745-.745-.586-.586c-.341-.34-.789-.51-1.237-.51z"/><path d="m17.664 6.017c-.453 0-.907.165-1.237.496l-.586.586c-.682.682-.682 1.792 0 2.475l.586.586.731.731 3.042-3.08-1.298-1.298c-.331-.331-.784-.496-1.238-.496z"/></g></svg>