<svg id="color" height="512" viewBox="0 0 24 24" width="512" xmlns="http://www.w3.org/2000/svg"><path d="m20 11h-2v-1c0-3.309-2.691-6-6-6s-6 2.691-6 6v1h-2v-1c0-4.411 3.589-8 8-8s8 3.589 8 8z" fill="#607d8b"/><path d="m17.25 10h-10.5c-.25 0-.5.01-.75.05v11.95h12v-11.95c-.25-.04-.5-.05-.75-.05z" fill="#607d8b"/><path d="m18 10.05v11.95h3.25c1.52 0 2.75-1.23 2.75-2.75v-2.5c0-3.47-2.63-6.33-6-6.7zm-18 6.7v2.5c0 1.52 1.23 2.75 2.75 2.75h3.25v-11.95c-3.37.37-6 3.23-6 6.7z" fill="#cfd8dc"/><path d="m14.25 19h-4.5c-.965 0-1.75-.785-1.75-1.75v-2.5c0-.965.785-1.75 1.75-1.75h4.5c.965 0 1.75.785 1.75 1.75v2.5c0 .965-.785 1.75-1.75 1.75z" fill="#cfd8dc"/><path d="m12 2c-4.411 0-8 3.589-8 8v.592c.623-.278 1.295-.464 2-.542v-.05c0-3.309 2.691-6 6-6z" fill="#546d79"/><path d="m12 10h-5.25c-.25 0-.5.01-.75.05v11.95h6v-3h-2.25c-.965 0-1.75-.785-1.75-1.75v-2.5c0-.965.785-1.75 1.75-1.75h2.25z" fill="#546d79"/><g fill="#b4bcc0"><path d="m6 10.05c-.705.077-1.377.264-2 .542-2.355 1.051-4 3.414-4 6.159v2.5c0 1.519 1.23 2.749 2.75 2.749h3.25z"/><path d="m12 13h-2.25c-.965 0-1.75.785-1.75 1.75v2.5c0 .965.785 1.75 1.75 1.75h2.25z"/></g></svg>