<svg id="color" height="512" viewBox="0 0 24 24" width="512" xmlns="http://www.w3.org/2000/svg"><path d="m10.25 16c-.192 0-.384-.073-.53-.22l-1.5-1.5c-.293-.293-.293-.768 0-1.061l5-5c.293-.293.768-.293 1.061 0l1.5 1.5c.293.293.293.768 0 1.061l-5 5c-.147.147-.339.22-.531.22z" fill="#607d8b"/><path d="m8.5 24c-.658 0-1.302-.268-1.768-.733l-.499-.499c-.391-.391-.391-1.023 0-1.414s1.023-.391 1.414 0l.5.5c.291.29.853.052.853-.354v-5.5c0-.551-.448-1-1-1h-5.5c-.275 0-.5.224-.5.5 0 .131.054.259.146.353l.501.5c.391.391.391 1.023 0 1.414s-1.023.391-1.414 0l-.5-.5c-.465-.465-.733-1.109-.733-1.767 0-1.378 1.121-2.5 2.5-2.5h5.5c1.654 0 3 1.346 3 3v5.5c0 1.378-1.121 2.5-2.5 2.5z" fill="#cfd8dc"/><path d="m15.5 0c.658 0 1.302.268 1.768.733l.499.5c.391.391.391 1.023 0 1.414s-1.023.391-1.414 0l-.5-.5c-.291-.291-.853-.053-.853.353v5.5c0 .551.448 1 1 1h5.5c.275 0 .5-.224.5-.5 0-.131-.054-.259-.146-.353l-.501-.501c-.391-.391-.391-1.023 0-1.414s1.023-.391 1.414 0l.5.5c.465.466.733 1.11.733 1.768 0 1.378-1.121 2.5-2.5 2.5h-5.5c-1.654 0-3-1.346-3-3v-5.5c0-1.378 1.121-2.5 2.5-2.5z" fill="#cfd8dc"/><path d="m5.75 23.413c-.554 0-1.108-.21-1.53-.632l-3-3c-.409-.409-.634-.952-.634-1.53s.225-1.122.634-1.531c.844-.843 2.217-.843 3.061 0l3 3c.409.409.634.952.634 1.53s-.225 1.122-.634 1.531c-.423.421-.977.632-1.531.632z" fill="#607d8b"/><path d="m18.25.587c.554 0 1.108.21 1.53.632l3 3c.409.409.634.952.634 1.53s-.225 1.122-.634 1.531c-.844.843-2.217.843-3.06 0l-3-3c-.409-.409-.634-.952-.634-1.53s.225-1.122.634-1.531c.422-.421.976-.632 1.53-.632z" fill="#607d8b"/><path d="m13.028 8.411-4.617 4.617c.663.091 1.257.4 1.709.852l3.759-3.759c-.451-.452-.76-1.047-.851-1.71z" fill="#546d79"/><path d="m8 13h-5.5c-1.379 0-2.5 1.122-2.5 2.5 0 .658.268 1.302.733 1.767l.058.058c.105-.222.249-.427.428-.606.335-.334.753-.536 1.188-.605l-.262-.261c-.091-.094-.145-.222-.145-.353 0-.276.225-.5.5-.5h5.5c.276 0 .526.112.707.293l1.414-1.414c-.452-.452-1.046-.76-1.709-.852-.135-.017-.272-.027-.412-.027z" fill="#b4bcc0"/><path d="m15.5 0c-1.379 0-2.5 1.122-2.5 2.5v5.5c0 .14.01.277.028.411.091.663.4 1.257.852 1.709l1.414-1.414c-.182-.18-.294-.43-.294-.706v-5.5c0-.281.269-.482.532-.482.116 0 .231.039.321.129l.26.26c.071-.448.28-.861.607-1.188.181-.181.387-.323.607-.427l-.059-.059c-.466-.465-1.11-.733-1.768-.733z" fill="#b4bcc0"/><g fill="#546d79"><path d="m2.75 16.087c-.114 0-.229.009-.342.027-.435.069-.854.271-1.188.605-.179.179-.323.384-.428.606-.135.285-.206.599-.206.924 0 .578.225 1.122.634 1.53l1.5 1.5 3.06-3.059-1.5-1.5c-.422-.422-.976-.633-1.53-.633z"/><path d="m18.25.587c-.316 0-.632.068-.923.205-.22.103-.426.245-.607.427-.327.327-.536.74-.607 1.188-.018.112-.027.227-.027.343 0 .578.225 1.122.634 1.53l1.5 1.5 3.06-3.06-1.5-1.5c-.422-.422-.976-.633-1.53-.633z"/></g></svg>