<svg id="color" height="512" viewBox="0 0 24 24" width="512" xmlns="http://www.w3.org/2000/svg"><path d="m16.499 11.5c-.172 0-.347-.044-.506-.138-.477-.28-.635-.893-.355-1.369l2.5-4.25c.28-.476.892-.635 1.369-.355s.635.893.355 1.369l-2.5 4.25c-.186.317-.52.493-.863.493z" fill="#607d8b"/><path d="m19 5.25c-.343 0-.676.176-.863.493l-2.5 4.25c-.274.467-.127 1.065.328 1.352l3.522-5.968c-.154-.086-.321-.127-.487-.127z" fill="#546d79"/><path d="m6.501 11.5c-.384 0-.749-.222-.915-.594l-2-4.5c-.224-.505.003-1.096.508-1.32.505-.225 1.096.003 1.32.507l2 4.5c.224.505-.003 1.096-.508 1.32-.132.06-.269.087-.405.087z" fill="#607d8b"/><path d="m6 7h-3c-.553 0-1-.448-1-1s.447-1 1-1h3c.553 0 1 .448 1 1s-.447 1-1 1z" fill="#607d8b"/><path d="m6.039 6.999c-.013.001-.026.001-.039.001h-1.14l2.04 4.416c.002-.001.004-.002.006-.003.505-.224.731-.815.508-1.32zm-1.539-1.999c-.005 0-.01 0-.016 0h.032c-.006 0-.011 0-.016 0z" fill="#546d79"/><path d="m6 5h-1.484-.032-.548l.924 2h1.14c.013 0 .026 0 .039-.001.535-.02.961-.46.961-.999 0-.552-.447-1-1-1z" fill="#546d79"/><circle cx="7" cy="14" fill="#607d8b" r="2"/><path d="m23 22h-22c-.553 0-1-.448-1-1s.447-1 1-1h22c.553 0 1 .448 1 1s-.447 1-1 1z" fill="#607d8b"/><path d="m17 18h-11c-2.206 0-4-1.794-4-4s1.794-4 4-4h11c2.206 0 4 1.794 4 4s-1.794 4-4 4z" fill="#cfd8dc"/><path d="m12 20h-11c-.553 0-1 .448-1 1 0 .552.447 1 1 1h11z" fill="#546d79"/><path d="m12 10h-6c-2.206 0-4 1.794-4 4s1.794 4 4 4h6z" fill="#b4bcc0"/><path d="m19.5 7h-3.5c-.553 0-1-.448-1-1s.447-1 1-1h3.5c.275 0 .5-.224.5-.5s-.225-.5-.5-.5h-1.5c-.553 0-1-.448-1-1s.447-1 1-1h1.5c1.379 0 2.5 1.122 2.5 2.5s-1.121 2.5-2.5 2.5z" fill="#607d8b"/><path d="m19.643 3h-2.643c0 .552.447 1 1 1h1.5c.275 0 .5.224.5.5s-.225.5-.5.5h-3.5c-.551 0-.997.444-1 .994h4.643c.826 0 1.497-.67 1.497-1.497s-.671-1.497-1.497-1.497z" fill="#546d79"/></svg>