<svg id="color" height="512" viewBox="0 0 24 24" width="512" xmlns="http://www.w3.org/2000/svg"><path d="m11.207 14.207-1.414-1.414 3-3 1.414 1.414z" fill="#cfd8dc"/><path d="m10.336 18c-.468 0-.907-.182-1.238-.513l-2.585-2.585c-.331-.331-.513-.77-.513-1.238 0-.467.182-.907.513-1.237l.586-.586c.682-.681 1.792-.682 2.474 0l2.587 2.586c.683.683.683 1.793 0 2.475l-.586.586c-.332.33-.771.512-1.238.512z" fill="#2196f3"/><path d="m15.664 12.671c-.447 0-.896-.17-1.236-.511l-2.587-2.586c-.683-.683-.683-1.793 0-2.475l.586-.586c.661-.661 1.814-.661 2.476 0l2.585 2.585c.33.331.512.77.512 1.238 0 .467-.182.907-.513 1.237l-.586.586c-.34.341-.789.512-1.237.512z" fill="#2196f3"/><path d="m12.427 10.159-2.268 2.268.707.707 2.268-2.268z" fill="#b4bcc0"/><path d="m8.336 11.329c-.448 0-.897.171-1.238.511l-.586.586c-.33.331-.512.771-.512 1.238 0 .468.182.907.513 1.237l1.293 1.293 3.061-3.061-.707-.707-.588-.586c-.34-.34-.788-.511-1.236-.511z" fill="#1d83d4"/><path d="m13.664 6.017c-.453 0-.907.165-1.237.496l-.586.586c-.683.682-.683 1.792 0 2.475l.586.586.707.707 3.061-3.061-1.292-1.292c-.331-.332-.785-.497-1.239-.497z" fill="#1d83d4"/><path d="m1.5 12c0-5.79 4.71-10.5 10.5-10.5 2.571 0 4.982.93 6.863 2.576l-.643.644c-.471.47-.138 1.28.53 1.28h2.5c.414 0 .75-.336.75-.75v-2.5c0-.663-.806-1.004-1.28-.53l-.796.796c-2.163-1.927-4.95-3.016-7.924-3.016-6.617 0-12 5.383-12 12 0 1.173.173 2.339.513 3.466.119.395.534.621.935.502.396-.12.621-.538.501-.935-.298-.987-.449-2.007-.449-3.033z" fill="#607d8b"/><path d="m23.487 8.534c-.12-.397-.535-.623-.935-.502-.396.12-.621.538-.501.935.298.987.449 2.007.449 3.033 0 5.79-4.71 10.5-10.5 10.5-2.571 0-4.982-.93-6.863-2.576l.643-.644c.471-.47.138-1.28-.53-1.28h-2.5c-.414 0-.75.336-.75.75v2.5c0 .667.811 1 1.28.53l.796-.796c2.163 1.927 4.95 3.016 7.924 3.016 6.617 0 12-5.383 12-12 0-1.173-.173-2.339-.513-3.466z" fill="#607d8b"/><g fill="#546d79"><path d="m12 0c-6.617 0-12 5.383-12 12 0 1.173.173 2.339.513 3.466.097.324.393.534.718.534.072 0 .144-.01.217-.032.396-.12.621-.538.501-.935-.298-.987-.449-2.007-.449-3.033 0-5.79 4.71-10.5 10.5-10.5z"/><path d="m5.25 18h-2.5c-.414 0-.75.336-.75.75v2.5c0 .452.371.75.757.75.184 0 .371-.068.523-.22l.796-.796c2.163 1.927 4.95 3.016 7.924 3.016v-1.5c-2.571 0-4.982-.93-6.863-2.576l.643-.644c.471-.47.138-1.28-.53-1.28z"/></g></svg>