<svg id="color" height="512" viewBox="0 0 24 24" width="512" xmlns="http://www.w3.org/2000/svg"><path d="m19.039 13-.169-.014c-.544-.093-.91-.609-.817-1.154l.349-2.047c.336-1.97-.204-3.967-1.481-5.481-1.236-1.465-3.029-2.304-4.921-2.304s-3.685.839-4.92 2.303c-1.277 1.514-1.817 3.512-1.481 5.481l.349 2.048c.093.544-.273 1.061-.817 1.154-.544.094-1.061-.273-1.153-.818l-.349-2.047c-.437-2.552.265-5.142 1.923-7.107 1.616-1.915 3.967-3.014 6.448-3.014s4.832 1.099 6.448 3.014c1.658 1.965 2.359 4.556 1.924 7.107l-.349 2.047c-.083.487-.505.832-.984.832z" fill="#607d8b"/><path d="m16.25 24h-8.5c-2.619 0-4.75-2.131-4.75-4.75v-3.25c0-4.962 4.037-9 9-9s9 4.038 9 9v3.25c0 2.619-2.131 4.75-4.75 4.75z" fill="#cfd8dc"/><path d="m21 20h-18v-5h18z" fill="#607d8b"/><path d="m12 0c-2.481 0-4.832 1.099-6.448 3.014-1.658 1.965-2.359 4.556-1.924 7.107l.318 1.866c.425-.849.979-1.621 1.638-2.292-.305-1.94.238-3.9 1.496-5.391 1.235-1.465 3.028-2.304 4.92-2.304h.063v-2c-.021 0-.042 0-.063 0z" fill="#546d79"/><path d="m12.063 20h-9.004c.361 2.264 2.327 4 4.691 4h4.313zm-.063-13c-2.509 0-4.782 1.033-6.416 2.695-.659.67-1.214 1.443-1.638 2.292-.464.925-.772 1.941-.891 3.013h9.007v-8c-.02 0-.041 0-.062 0z" fill="#b4bcc0"/><path d="m12.063 15h-9.008-.055v1 3.25.75h.059 9.004z" fill="#546d79"/></svg>