<svg id="color" height="512" viewBox="0 0 24 24" width="512" xmlns="http://www.w3.org/2000/svg"><path d="m12 24c-6.617 0-12-5.383-12-12s5.383-12 12-12 12 5.383 12 12-5.383 12-12 12z" fill="#607d8b"/><path d="m12 21c-4.962 0-9-4.038-9-9 0-4.963 4.038-9 9-9s9 4.037 9 9c0 4.962-4.038 9-9 9z" fill="#cfd8dc"/><path d="m12 0c-6.617 0-12 5.383-12 12s5.383 12 12 12v-3c-4.962 0-9-4.038-9-9 0-4.963 4.038-9 9-9z" fill="#546d79"/><path d="m12 3c-4.962 0-9 4.037-9 9 0 4.962 4.038 9 9 9z" fill="#b4bcc0"/><path d="m7 11.75c-.553 0-1-.448-1-1 0-2.619 2.131-4.75 4.75-4.75.553 0 1 .448 1 1s-.447 1-1 1c-1.517 0-2.75 1.233-2.75 2.75 0 .552-.447 1-1 1z" fill="#607d8b"/><path d="m10.75 6c-2.619 0-4.75 2.131-4.75 4.75 0 .552.447 1 1 1-.381-4.29 2.582-4.799 4.01-4.799.444 0 .74.049.74.049 0-.552-.447-1-1-1z" fill="#546d79"/><path d="m14 12c0 1.104-.895 2-2 2-1.104 0-2-.896-2-2s.895-2 2-2 2 .896 2 2z" fill="#607d8b"/><path d="m12 10c-1.104 0-2 .896-2 2s.895 2 2 2z" fill="#546d79"/><path d="m13.25 18c-.553 0-1-.447-1-1s.447-1 1-1c1.517 0 2.75-1.233 2.75-2.75 0-.552.447-1 1-1s1 .448 1 1c0 2.619-2.131 4.75-4.75 4.75z" fill="#607d8b"/><path d="m17 12.25c-.553 0-1 .448-1 1 0 1.517-1.233 2.75-2.75 2.75-.553 0-1 .447-1 1 .19.013.372.02.547.02 4.784 0 4.203-4.77 4.203-4.77z" fill="#546d79"/></svg>