<svg width="204" height="87" viewBox="0 0 204 87" fill="none" xmlns="http://www.w3.org/2000/svg">
<path d="M18.048 65.512C14.9333 65.512 12.1813 64.8507 9.792 63.528C7.44533 62.2053 5.632 60.328 4.352 57.896C3.072 55.464 2.432 52.6267 2.432 49.384C2.432 46.1413 3.09333 43.2827 4.416 40.808C5.78133 38.2907 7.68 36.3493 10.112 34.984C12.544 33.6187 15.3387 32.936 18.496 32.936C20.16 32.936 21.824 33.1707 23.488 33.64C25.1947 34.1093 26.688 34.7493 27.968 35.56C29.3333 36.456 30.016 37.5867 30.016 38.952C30.016 39.8907 29.7813 40.6587 29.312 41.256C28.8853 41.8107 28.3093 42.088 27.584 42.088C27.1147 42.088 26.624 41.9813 26.112 41.768C25.6 41.5547 25.088 41.2987 24.576 41C23.6373 40.4453 22.7413 40.0187 21.888 39.72C21.0347 39.3787 20.0533 39.208 18.944 39.208C16.2987 39.208 14.2507 40.0827 12.8 41.832C11.392 43.5387 10.688 46.0133 10.688 49.256C10.688 52.456 11.392 54.9307 12.8 56.68C14.2507 58.3867 16.2987 59.24 18.944 59.24C20.0107 59.24 20.9493 59.0907 21.76 58.792C22.6133 58.4507 23.552 58.0027 24.576 57.448C25.216 57.064 25.7707 56.7867 26.24 56.616C26.7093 56.4027 27.1787 56.296 27.648 56.296C28.3307 56.296 28.9067 56.5947 29.376 57.192C29.8453 57.7893 30.08 58.536 30.08 59.432C30.08 60.1573 29.9093 60.7973 29.568 61.352C29.2693 61.864 28.7573 62.3333 28.032 62.76C26.7093 63.6133 25.1733 64.296 23.424 64.808C21.6747 65.2773 19.8827 65.512 18.048 65.512ZM53.714 32.936C61.0527 32.936 64.722 37.224 64.722 45.8V61.544C64.722 62.7387 64.3593 63.6773 63.634 64.36C62.9513 65.0427 61.9913 65.384 60.754 65.384C59.5167 65.384 58.5353 65.0427 57.81 64.36C57.0847 63.6773 56.722 62.7387 56.722 61.544V45.8C56.722 43.5387 56.2527 41.896 55.314 40.872C54.418 39.8053 52.9887 39.272 51.026 39.272C48.722 39.272 46.866 39.9973 45.458 41.448C44.0927 42.8987 43.41 44.84 43.41 47.272V61.544C43.41 62.7387 43.0473 63.6773 42.322 64.36C41.5967 65.0427 40.6153 65.384 39.378 65.384C38.1407 65.384 37.1593 65.0427 36.434 64.36C35.7513 63.6773 35.41 62.7387 35.41 61.544V23.272C35.41 22.1627 35.7727 21.2667 36.498 20.584C37.266 19.9013 38.2473 19.56 39.442 19.56C40.6367 19.56 41.5967 19.88 42.322 20.52C43.0473 21.16 43.41 22.0347 43.41 23.144V38.056C44.4767 36.392 45.8847 35.1333 47.634 34.28C49.426 33.384 51.4527 32.936 53.714 32.936ZM90.3195 33.064C91.4288 32.9787 92.3035 33.2133 92.9435 33.768C93.5835 34.3227 93.9035 35.1547 93.9035 36.264C93.9035 37.416 93.6262 38.2693 93.0715 38.824C92.5168 39.3787 91.5142 39.7413 90.0635 39.912L88.1435 40.104C85.6262 40.36 83.7702 41.2133 82.5755 42.664C81.4235 44.1147 80.8475 45.928 80.8475 48.104V61.544C80.8475 62.7813 80.4635 63.7413 79.6955 64.424C78.9275 65.064 77.9675 65.384 76.8155 65.384C75.6635 65.384 74.7035 65.064 73.9355 64.424C73.2102 63.7413 72.8475 62.7813 72.8475 61.544V36.776C72.8475 35.5813 73.2102 34.664 73.9355 34.024C74.7035 33.384 75.6422 33.064 76.7515 33.064C77.8608 33.064 78.7568 33.384 79.4395 34.024C80.1222 34.6213 80.4635 35.496 80.4635 36.648V39.208C81.2742 37.3307 82.4688 35.88 84.0475 34.856C85.6688 33.832 87.4608 33.256 89.4235 33.128L90.3195 33.064ZM110.995 65.512C107.795 65.512 104.979 64.8507 102.547 63.528C100.157 62.2053 98.3012 60.3067 96.9785 57.832C95.6558 55.3573 94.9945 52.4773 94.9945 49.192C94.9945 45.9067 95.6558 43.048 96.9785 40.616C98.3012 38.1413 100.157 36.2427 102.547 34.92C104.979 33.5973 107.795 32.936 110.995 32.936C114.195 32.936 116.989 33.5973 119.379 34.92C121.811 36.2427 123.667 38.1413 124.947 40.616C126.269 43.048 126.931 45.9067 126.931 49.192C126.931 52.4773 126.269 55.3573 124.947 57.832C123.667 60.3067 121.811 62.2053 119.379 63.528C116.989 64.8507 114.195 65.512 110.995 65.512ZM110.931 59.304C113.533 59.304 115.517 58.4507 116.883 56.744C118.248 55.0373 118.931 52.52 118.931 49.192C118.931 45.9067 118.248 43.4107 116.883 41.704C115.517 39.9547 113.555 39.08 110.995 39.08C108.435 39.08 106.451 39.9547 105.043 41.704C103.677 43.4107 102.995 45.9067 102.995 49.192C102.995 52.52 103.677 55.0373 105.043 56.744C106.408 58.4507 108.371 59.304 110.931 59.304ZM151.711 32.936C155.466 32.936 158.26 34.0027 160.095 36.136C161.93 38.2693 162.847 41.4907 162.847 45.8V61.544C162.847 62.7387 162.484 63.6773 161.759 64.36C161.076 65.0427 160.116 65.384 158.879 65.384C157.642 65.384 156.66 65.0427 155.935 64.36C155.21 63.6773 154.847 62.7387 154.847 61.544V46.248C154.847 43.816 154.378 42.0453 153.439 40.936C152.543 39.8267 151.114 39.272 149.151 39.272C146.847 39.272 144.991 39.9973 143.583 41.448C142.218 42.8987 141.535 44.84 141.535 47.272V61.544C141.535 62.7387 141.172 63.6773 140.447 64.36C139.722 65.0427 138.74 65.384 137.503 65.384C136.266 65.384 135.284 65.0427 134.559 64.36C133.876 63.6773 133.535 62.7387 133.535 61.544V36.776C133.535 35.6667 133.898 34.7707 134.623 34.088C135.348 33.4053 136.33 33.064 137.567 33.064C138.676 33.064 139.572 33.4053 140.255 34.088C140.98 34.728 141.343 35.5813 141.343 36.648V38.376C142.41 36.6267 143.839 35.2827 145.631 34.344C147.423 33.4053 149.45 32.936 151.711 32.936ZM185.245 65.512C182.045 65.512 179.229 64.8507 176.797 63.528C174.407 62.2053 172.551 60.3067 171.229 57.832C169.906 55.3573 169.245 52.4773 169.245 49.192C169.245 45.9067 169.906 43.048 171.229 40.616C172.551 38.1413 174.407 36.2427 176.797 34.92C179.229 33.5973 182.045 32.936 185.245 32.936C188.445 32.936 191.239 33.5973 193.629 34.92C196.061 36.2427 197.917 38.1413 199.197 40.616C200.519 43.048 201.181 45.9067 201.181 49.192C201.181 52.4773 200.519 55.3573 199.197 57.832C197.917 60.3067 196.061 62.2053 193.629 63.528C191.239 64.8507 188.445 65.512 185.245 65.512ZM185.181 59.304C187.783 59.304 189.767 58.4507 191.133 56.744C192.498 55.0373 193.181 52.52 193.181 49.192C193.181 45.9067 192.498 43.4107 191.133 41.704C189.767 39.9547 187.805 39.08 185.245 39.08C182.685 39.08 180.701 39.9547 179.293 41.704C177.927 43.4107 177.245 45.9067 177.245 49.192C177.245 52.52 177.927 55.0373 179.293 56.744C180.658 58.4507 182.621 59.304 185.181 59.304Z" fill="#4F60F8"/>
<rect x="102" y="22" width="18" height="8" rx="4" fill="#4F60F8"/>
<path d="M107.918 44.6255L110.418 50.6255L115 52" stroke="#4F60F8" stroke-width="2" stroke-linecap="round"/>
</svg>
