<svg id="color" height="512" viewBox="0 0 24 24" width="512" xmlns="http://www.w3.org/2000/svg"><g fill="#607d8b"><path d="m13 16.75h-2v-13.75h2z"/><path d="m4 24c-.553 0-1-.448-1-1v-22c0-.552.447-1 1-1s1 .448 1 1v22c0 .552-.447 1-1 1z"/><path d="m20 24c-.553 0-1-.448-1-1v-22c0-.552.447-1 1-1s1 .448 1 1v22c0 .552-.447 1-1 1z"/><path d="m19.5 4h-15v-2h15z"/><path d="m22 14c-.273 0-.546-.112-.743-.331l-3.904-4.338c-.19-.21-.46-.331-.744-.331h-9.218c-.284 0-.554.121-.744.331l-3.904 4.338c-.368.411-1.001.445-1.412.074-.41-.369-.443-1.002-.074-1.412l3.904-4.338c.567-.631 1.38-.993 2.23-.993h9.219c.85 0 1.662.362 2.229.994l3.904 4.337c.369.411.336 1.043-.074 1.412-.191.172-.431.257-.669.257z"/></g><path d="m14.25 16h-4.5c-.96 0-1.75.79-1.75 1.75v2.25h8v-2.25c0-.96-.79-1.75-1.75-1.75z" fill="#90a4ae"/><path d="m8 20v2.25c0 .96.79 1.75 1.75 1.75h4.5c.96 0 1.75-.79 1.75-1.75v-2.25z" fill="#cfd8dc"/><path d="m12 9h-1v7h1zm0-5h-1v3h1z" fill="#546d79"/><path d="m5 11.161-2 2.222v9.617c0 .552.447 1 1 1s1-.448 1-1zm-1-11.161c-.553 0-1 .448-1 1v9.394l2-2.222v-4.172h-.5v-2h.5v-1c0-.552-.447-1-1-1z" fill="#546d79"/><path d="m12 2h-7-.5v2h.5 6 1z" fill="#546d79"/><path d="m12 7h-1-3.609c-.85 0-1.662.362-2.23.993l-.161.179-2 2.222-1.743 1.937c-.369.411-.336 1.043.074 1.412.191.173.431.258.669.258.274 0 .546-.112.743-.332l.257-.285 2-2.222 1.647-1.831c.19-.21.46-.331.744-.331h3.609 1z" fill="#546d79"/><path d="m12 16h-1-1.25c-.96 0-1.75.79-1.75 1.75v2.25h4z" fill="#7d8f97"/><path d="m12 20h-4v2.25c0 .96.79 1.75 1.75 1.75h2.25z" fill="#b4bcc0"/></svg>