<svg id="color" height="512" viewBox="0 0 24 24" width="512" xmlns="http://www.w3.org/2000/svg"><path d="m14.396 7c-.762 0-1.524-.228-2.149-.681-.336-.244-.622-.533-.849-.86-.052-.074-.142-.105-.24-.092-1.433.24-2.886.24-4.318 0-.102-.013-.187.017-.238.09-.228.329-.513.618-.849.861-1.193.866-2.885.911-4.119.115-1.023-.663-1.634-1.758-1.634-2.933s.611-2.271 1.634-2.933c1.234-.797 2.926-.75 4.118.113.336.244.622.533.849.86.052.074.138.103.24.092 1.433-.24 2.886-.24 4.318 0 .099.011.187-.018.238-.09.228-.329.514-.618.849-.861 1.194-.865 2.886-.91 4.119-.114 1.024.662 1.635 1.758 1.635 2.933s-.611 2.27-1.634 2.933c-.587.379-1.278.567-1.97.567z" fill="#607d8b"/><path d="m18 3.5h-18c0 1.175.611 2.27 1.634 2.933.587.379 1.278.567 1.97.567.762 0 1.524-.228 2.15-.682.335-.243.621-.532.849-.861.043-.062.112-.093.194-.093.014 0 .029.001.045.003.715.12 1.437.18 2.158.18s1.443-.06 2.159-.18c.015-.002.03-.003.044-.003.08 0 .151.032.196.095.227.327.512.616.849.86.625.452 1.387.681 2.148.681.691 0 1.382-.188 1.969-.567 1.024-.663 1.635-1.758 1.635-2.933z" fill="#546d79"/><path d="m12.652 24c-.967 0-1.899-.376-2.588-1.065-.86-.859-1.231-2.098-.993-3.311.29-1.479 1.54-2.661 3.04-2.872.422-.058.84-.048 1.242.033.097.017.181-.018.238-.098.848-1.205 1.89-2.247 3.096-3.096.081-.057.116-.144.097-.238v-.001c-.08-.404-.09-.822-.031-1.241.21-1.498 1.391-2.749 2.871-3.04 1.211-.237 2.453.134 3.313.995.86.859 1.231 2.098.993 3.311-.29 1.479-1.54 2.661-3.04 2.872-.422.058-.84.048-1.242-.033-.097-.016-.181.018-.238.098-.848 1.205-1.89 2.247-3.096 3.096-.081.057-.116.144-.097.238.081.405.091.823.032 1.242-.21 1.498-1.391 2.749-2.871 3.04-.243.047-.485.07-.726.07z" fill="#607d8b"/><path d="m22.936 10.065-12.87 12.871c.688.689 1.62 1.064 2.586 1.064.24 0 .483-.023.725-.07 1.48-.291 2.661-1.542 2.871-3.04.059-.419.049-.837-.032-1.242-.019-.095.017-.182.097-.238 1.207-.849 2.249-1.891 3.096-3.096.048-.067.114-.101.192-.101.015 0 .03.001.046.004.232.047.469.07.71.07.176 0 .354-.012.532-.037 1.5-.211 2.751-1.393 3.04-2.872.239-1.215-.133-2.453-.993-3.313z" fill="#546d79"/></svg>